;Layer: Drill PTH
;EasyEDA v6.2.46, 2019-12-05T15:20:42+01:00
;d8fcaf4132fa48e7953a627b650daf80,0734b15ce4794c74ad8cde99a471bf6c,10
;Gerber Generator version 0.2
M48
METRIC,LZ,000.000
;Holesize 1 = 0.305 METRIC
T01C0.305
;Holesize 2 = 0.701 METRIC
T02C0.701
;Holesize 3 = 0.889 METRIC
T03C0.889
;Holesize 4 = 0.900 METRIC
T04C0.900
;Holesize 5 = 0.915 METRIC
T05C0.915
;Holesize 6 = 1.000 METRIC
T06C1.000
;Holesize 7 = 1.301 METRIC
T07C1.301
%
G05
G90
T01
X+070127Y+034906
X+072794Y+027667
X+101623Y+029572
X+100480Y+030715
X+041679Y+036176
X+036091Y+025508
X+011580Y+027413
X+009040Y+025000
X+121943Y+032620
X+086383Y+040621
X+083208Y+040621
X+120800Y+034398
X+096416Y+038589
X+083335Y+038970
T02
X+025000Y+030334
X+027540Y+029699
X+029521Y+027971
X+030435Y+025482
X+030130Y+022891
X+028632Y+020732
X+026320Y+019513
X+023679Y+019513
X+021367Y+020732
X+019869Y+022891
X+019564Y+025508
X+020478Y+027971
X+022460Y+029699
X+050000Y+030334
X+052540Y+029699
X+054521Y+027971
X+055435Y+025482
X+055130Y+022891
X+053632Y+020732
X+051320Y+019513
X+048679Y+019513
X+046367Y+020732
X+044869Y+022891
X+044564Y+025508
X+045478Y+027971
X+047460Y+029699
X+090000Y+030334
X+092540Y+029699
X+094521Y+027971
X+095435Y+025482
X+095130Y+022891
X+093632Y+020732
X+091320Y+019513
X+088679Y+019513
X+086367Y+020732
X+084869Y+022891
X+084564Y+025508
X+085478Y+027971
X+087460Y+029699
X+115000Y+030334
X+117540Y+029699
X+119521Y+027971
X+120435Y+025482
X+120130Y+022891
X+118632Y+020732
X+116320Y+019513
X+113679Y+019513
X+111367Y+020732
X+109869Y+022891
X+109564Y+025508
X+110478Y+027971
X+112460Y+029699
T03
X+037234Y+043288
X+124610Y+044050
X+129690Y+044050
T04
X+025000Y+035689
X+025000Y+043309
X+050000Y+035689
X+050000Y+043309
X+090000Y+035689
X+090000Y+043309
X+115000Y+035689
X+115000Y+043309
T05
X+014882Y+022633
X+014882Y+024919
X+014882Y+027459
X+014882Y+029999
X+014882Y+032793
X+014882Y+037619
X+035202Y+037619
X+035202Y+035079
X+035202Y+032539
X+035202Y+029999
X+035202Y+027459
X+014882Y+035079
X+072667Y+003537
X+070063Y+003537
X+067460Y+003537
X+062253Y+017380
X+062253Y+019920
X+062253Y+022460
X+062253Y+025000
X+062253Y+027540
X+062253Y+030080
X+062253Y+032620
X+062253Y+035160
X+062253Y+037700
X+062253Y+040240
X+062253Y+042780
X+062253Y+045320
X+072413Y+045320
X+074953Y+045320
X+077493Y+045320
X+077493Y+042780
X+077493Y+040240
X+077493Y+037700
X+077493Y+035160
X+077493Y+032620
X+077493Y+030080
X+077493Y+027540
X+077493Y+025000
X+077493Y+022460
X+077493Y+019920
X+077493Y+017380
X+074953Y+026270
X+074953Y+028810
X+069873Y+045320
T06
X+123890Y+004190
X+121350Y+004190
X+118810Y+004190
X+116270Y+004190
X+113730Y+004190
X+111190Y+004190
X+108650Y+004190
X+106110Y+004190
X+106110Y+011810
X+108650Y+011810
X+111190Y+011810
X+113730Y+011810
X+116270Y+011810
X+118810Y+011810
X+121350Y+011810
X+123890Y+011810
X+098890Y+004190
X+096350Y+004190
X+093810Y+004190
X+091270Y+004190
X+088730Y+004190
X+086190Y+004190
X+083650Y+004190
X+081110Y+004190
X+081110Y+011810
X+083650Y+011810
X+086190Y+011810
X+088730Y+011810
X+091270Y+011810
X+093810Y+011810
X+096350Y+011810
X+098890Y+011810
X+058890Y+004190
X+056350Y+004190
X+053810Y+004190
X+051270Y+004190
X+048730Y+004190
X+046190Y+004190
X+043650Y+004190
X+041110Y+004190
X+041110Y+011810
X+043650Y+011810
X+046190Y+011810
X+048730Y+011810
X+051270Y+011810
X+053810Y+011810
X+056350Y+011810
X+058890Y+011810
X+033890Y+004190
X+031350Y+004190
X+028810Y+004190
X+026270Y+004190
X+023730Y+004190
X+021190Y+004190
X+018650Y+004190
X+016110Y+004190
X+016110Y+011810
X+018650Y+011810
X+021190Y+011810
X+023730Y+011810
X+026270Y+011810
X+028810Y+011810
X+031350Y+011810
X+033890Y+011810
T07
X+128674Y+032874
X+133754Y+032874
X+131214Y+032874
M30
