G04 Layer: TopSilkLayer*
G04 EasyEDA v6.2.46, 2019-12-05T15:20:42+01:00*
G04 d8fcaf4132fa48e7953a627b650daf80,0734b15ce4794c74ad8cde99a471bf6c,10*
G04 Gerber Generator version 0.2*
G04 Scale: 100 percent, Rotated: No, Reflected: No *
G04 Dimensions in millimeters *
G04 leading zeros omitted , absolute positions ,3 integer and 3 decimal *
%FSLAX33Y33*%
%MOMM*%
G90*
G71D02*

%ADD10C,0.254000*%
%ADD25C,0.152400*%
%ADD26C,0.203200*%

%LPD*%
G54D10*
G01X25000Y22307D02*
G01X25000Y27387D01*
G01X24746Y27387D01*
G01X23222Y25863D01*
G01X25000Y27641D01*
G01X26778Y25863D01*
G01X50000Y22307D02*
G01X50000Y27387D01*
G01X49746Y27387D01*
G01X48222Y25863D01*
G01X50000Y27641D01*
G01X51778Y25863D01*
G01X90000Y22307D02*
G01X90000Y27387D01*
G01X89746Y27387D01*
G01X88222Y25863D01*
G01X90000Y27641D01*
G01X91778Y25863D01*
G01X115000Y22307D02*
G01X115000Y27387D01*
G01X114746Y27387D01*
G01X113222Y25863D01*
G01X115000Y27641D01*
G01X116778Y25863D01*
G01X22417Y7256D02*
G01X22417Y5407D01*
G01X24957Y5407D01*
G01X24957Y7256D01*
G01X24957Y8780D02*
G01X24957Y10638D01*
G01X22417Y10638D01*
G01X22417Y8780D01*
G01X47525Y7256D02*
G01X47525Y5407D01*
G01X50065Y5407D01*
G01X50065Y7256D01*
G01X50065Y8780D02*
G01X50065Y10638D01*
G01X47525Y10638D01*
G01X47525Y8780D01*
G01X87394Y7256D02*
G01X87394Y5407D01*
G01X89934Y5407D01*
G01X89934Y7256D01*
G01X89934Y8780D02*
G01X89934Y10638D01*
G01X87394Y10638D01*
G01X87394Y8780D01*
G01X112502Y7256D02*
G01X112502Y5407D01*
G01X115042Y5407D01*
G01X115042Y7256D01*
G01X115042Y8780D02*
G01X115042Y10638D01*
G01X112502Y10638D01*
G01X112502Y8780D01*
G01X24238Y36959D02*
G01X24238Y42039D01*
G01X24238Y42039D02*
G01X25000Y42039D01*
G01X25000Y42039D02*
G01X25762Y42039D01*
G01X25762Y42039D02*
G01X25762Y36959D01*
G01X25762Y36959D02*
G01X25000Y36959D01*
G01X25000Y36959D02*
G01X24238Y36959D01*
G01X25000Y42039D02*
G01X25000Y42293D01*
G01X25000Y36959D02*
G01X25000Y36705D01*
G01X49238Y36959D02*
G01X49238Y42039D01*
G01X49238Y42039D02*
G01X50000Y42039D01*
G01X50000Y42039D02*
G01X50762Y42039D01*
G01X50762Y42039D02*
G01X50762Y36959D01*
G01X50762Y36959D02*
G01X50000Y36959D01*
G01X50000Y36959D02*
G01X49238Y36959D01*
G01X50000Y42039D02*
G01X50000Y42293D01*
G01X50000Y36959D02*
G01X50000Y36705D01*
G01X89237Y36959D02*
G01X89237Y42039D01*
G01X89237Y42039D02*
G01X89999Y42039D01*
G01X89999Y42039D02*
G01X90761Y42039D01*
G01X90761Y42039D02*
G01X90761Y36959D01*
G01X90761Y36959D02*
G01X89999Y36959D01*
G01X89999Y36959D02*
G01X89237Y36959D01*
G01X89999Y42039D02*
G01X89999Y42293D01*
G01X89999Y36959D02*
G01X89999Y36705D01*
G01X114237Y36959D02*
G01X114237Y42039D01*
G01X114237Y42039D02*
G01X114999Y42039D01*
G01X114999Y42039D02*
G01X115761Y42039D01*
G01X115761Y42039D02*
G01X115761Y36959D01*
G01X115761Y36959D02*
G01X114999Y36959D01*
G01X114999Y36959D02*
G01X114237Y36959D01*
G01X114999Y42039D02*
G01X114999Y42293D01*
G01X114999Y36959D02*
G01X114999Y36705D01*
G54D25*
G01X26565Y33127D02*
G01X26565Y32350D01*
G01X26616Y32193D01*
G01X26720Y32089D01*
G01X26878Y32038D01*
G01X26982Y32038D01*
G01X27137Y32089D01*
G01X27241Y32193D01*
G01X27292Y32350D01*
G01X27292Y33127D01*
G01X27635Y32922D02*
G01X27739Y32973D01*
G01X27896Y33127D01*
G01X27896Y32038D01*
G54D26*
G01X20682Y18589D02*
G01X20682Y16651D01*
G01X20682Y18589D02*
G01X21883Y18589D01*
G01X20682Y17667D02*
G01X21421Y17667D01*
G01X22493Y18589D02*
G01X22493Y16651D01*
G01X22493Y18589D02*
G01X23323Y18589D01*
G01X23600Y18497D01*
G01X23691Y18406D01*
G01X23785Y18220D01*
G01X23785Y18035D01*
G01X23691Y17849D01*
G01X23600Y17758D01*
G01X23323Y17667D01*
G01X22493Y17667D01*
G01X23138Y17667D02*
G01X23785Y16651D01*
G01X24949Y18589D02*
G01X24763Y18497D01*
G01X24580Y18312D01*
G01X24486Y18129D01*
G01X24395Y17849D01*
G01X24395Y17390D01*
G01X24486Y17113D01*
G01X24580Y16927D01*
G01X24763Y16742D01*
G01X24949Y16651D01*
G01X25317Y16651D01*
G01X25502Y16742D01*
G01X25688Y16927D01*
G01X25779Y17113D01*
G01X25873Y17390D01*
G01X25873Y17849D01*
G01X25779Y18129D01*
G01X25688Y18312D01*
G01X25502Y18497D01*
G01X25317Y18589D01*
G01X24949Y18589D01*
G01X26483Y18589D02*
G01X26483Y16651D01*
G01X26483Y18589D02*
G01X27776Y16651D01*
G01X27776Y18589D02*
G01X27776Y16651D01*
G01X29030Y18589D02*
G01X29030Y16651D01*
G01X28385Y18589D02*
G01X29678Y18589D01*
G01X24977Y33829D02*
G01X24238Y31891D01*
G01X24977Y33829D02*
G01X25716Y31891D01*
G01X24514Y32536D02*
G01X25439Y32536D01*
G54D25*
G01X51204Y33127D02*
G01X51204Y32350D01*
G01X51254Y32193D01*
G01X51358Y32089D01*
G01X51516Y32038D01*
G01X51620Y32038D01*
G01X51775Y32089D01*
G01X51879Y32193D01*
G01X51930Y32350D01*
G01X51930Y33127D01*
G01X52377Y33127D02*
G01X52948Y33127D01*
G01X52639Y32713D01*
G01X52794Y32713D01*
G01X52898Y32660D01*
G01X52948Y32609D01*
G01X53002Y32454D01*
G01X53002Y32350D01*
G01X52948Y32193D01*
G01X52844Y32089D01*
G01X52689Y32038D01*
G01X52534Y32038D01*
G01X52377Y32089D01*
G01X52326Y32142D01*
G01X52273Y32246D01*
G54D26*
G01X45682Y18589D02*
G01X45682Y16651D01*
G01X45682Y18589D02*
G01X46883Y18589D01*
G01X45682Y17667D02*
G01X46421Y17667D01*
G01X47493Y18589D02*
G01X47493Y16651D01*
G01X47493Y18589D02*
G01X48323Y18589D01*
G01X48600Y18497D01*
G01X48691Y18406D01*
G01X48785Y18220D01*
G01X48785Y18035D01*
G01X48691Y17849D01*
G01X48600Y17758D01*
G01X48323Y17667D01*
G01X47493Y17667D01*
G01X48138Y17667D02*
G01X48785Y16651D01*
G01X49949Y18589D02*
G01X49763Y18497D01*
G01X49580Y18312D01*
G01X49486Y18129D01*
G01X49395Y17849D01*
G01X49395Y17390D01*
G01X49486Y17113D01*
G01X49580Y16927D01*
G01X49763Y16742D01*
G01X49949Y16651D01*
G01X50317Y16651D01*
G01X50502Y16742D01*
G01X50688Y16927D01*
G01X50779Y17113D01*
G01X50873Y17390D01*
G01X50873Y17849D01*
G01X50779Y18129D01*
G01X50688Y18312D01*
G01X50502Y18497D01*
G01X50317Y18589D01*
G01X49949Y18589D01*
G01X51483Y18589D02*
G01X51483Y16651D01*
G01X51483Y18589D02*
G01X52776Y16651D01*
G01X52776Y18589D02*
G01X52776Y16651D01*
G01X54030Y18589D02*
G01X54030Y16651D01*
G01X53385Y18589D02*
G01X54678Y18589D01*
G01X49977Y33829D02*
G01X49238Y31891D01*
G01X49977Y33829D02*
G01X50716Y31891D01*
G01X49514Y32536D02*
G01X50439Y32536D01*
G54D25*
G01X91336Y33127D02*
G01X91336Y32350D01*
G01X91386Y32193D01*
G01X91490Y32089D01*
G01X91648Y32038D01*
G01X91752Y32038D01*
G01X91907Y32089D01*
G01X92011Y32193D01*
G01X92062Y32350D01*
G01X92062Y33127D01*
G01X93030Y32973D02*
G01X92976Y33077D01*
G01X92821Y33127D01*
G01X92717Y33127D01*
G01X92562Y33077D01*
G01X92458Y32922D01*
G01X92405Y32660D01*
G01X92405Y32401D01*
G01X92458Y32193D01*
G01X92562Y32089D01*
G01X92717Y32038D01*
G01X92771Y32038D01*
G01X92926Y32089D01*
G01X93030Y32193D01*
G01X93080Y32350D01*
G01X93080Y32401D01*
G01X93030Y32556D01*
G01X92926Y32660D01*
G01X92771Y32713D01*
G01X92717Y32713D01*
G01X92562Y32660D01*
G01X92458Y32556D01*
G01X92405Y32401D01*
G54D26*
G01X85682Y18589D02*
G01X85682Y16651D01*
G01X85682Y18589D02*
G01X86883Y18589D01*
G01X85682Y17667D02*
G01X86421Y17667D01*
G01X87493Y18589D02*
G01X87493Y16651D01*
G01X87493Y18589D02*
G01X88323Y18589D01*
G01X88600Y18497D01*
G01X88691Y18406D01*
G01X88785Y18220D01*
G01X88785Y18035D01*
G01X88691Y17849D01*
G01X88600Y17758D01*
G01X88323Y17667D01*
G01X87493Y17667D01*
G01X88138Y17667D02*
G01X88785Y16651D01*
G01X89949Y18589D02*
G01X89763Y18497D01*
G01X89580Y18312D01*
G01X89486Y18129D01*
G01X89395Y17849D01*
G01X89395Y17390D01*
G01X89486Y17113D01*
G01X89580Y16927D01*
G01X89763Y16742D01*
G01X89949Y16651D01*
G01X90317Y16651D01*
G01X90502Y16742D01*
G01X90688Y16927D01*
G01X90779Y17113D01*
G01X90873Y17390D01*
G01X90873Y17849D01*
G01X90779Y18129D01*
G01X90688Y18312D01*
G01X90502Y18497D01*
G01X90317Y18589D01*
G01X89949Y18589D01*
G01X91483Y18589D02*
G01X91483Y16651D01*
G01X91483Y18589D02*
G01X92776Y16651D01*
G01X92776Y18589D02*
G01X92776Y16651D01*
G01X94031Y18589D02*
G01X94031Y16651D01*
G01X93385Y18589D02*
G01X94678Y18589D01*
G01X89977Y33829D02*
G01X89238Y31891D01*
G01X89977Y33829D02*
G01X90716Y31891D01*
G01X89514Y32536D02*
G01X90439Y32536D01*
G54D25*
G01X116228Y33166D02*
G01X116228Y32388D01*
G01X116278Y32231D01*
G01X116382Y32127D01*
G01X116540Y32076D01*
G01X116644Y32076D01*
G01X116799Y32127D01*
G01X116903Y32231D01*
G01X116954Y32388D01*
G01X116954Y33166D01*
G01X117558Y33166D02*
G01X117401Y33115D01*
G01X117350Y33011D01*
G01X117350Y32907D01*
G01X117401Y32802D01*
G01X117505Y32752D01*
G01X117713Y32698D01*
G01X117868Y32647D01*
G01X117972Y32543D01*
G01X118026Y32439D01*
G01X118026Y32284D01*
G01X117972Y32180D01*
G01X117922Y32127D01*
G01X117764Y32076D01*
G01X117558Y32076D01*
G01X117401Y32127D01*
G01X117350Y32180D01*
G01X117297Y32284D01*
G01X117297Y32439D01*
G01X117350Y32543D01*
G01X117454Y32647D01*
G01X117609Y32698D01*
G01X117818Y32752D01*
G01X117922Y32802D01*
G01X117972Y32907D01*
G01X117972Y33011D01*
G01X117922Y33115D01*
G01X117764Y33166D01*
G01X117558Y33166D01*
G54D26*
G01X110682Y18589D02*
G01X110682Y16651D01*
G01X110682Y18589D02*
G01X111883Y18589D01*
G01X110682Y17667D02*
G01X111421Y17667D01*
G01X112493Y18589D02*
G01X112493Y16651D01*
G01X112493Y18589D02*
G01X113323Y18589D01*
G01X113600Y18497D01*
G01X113691Y18406D01*
G01X113785Y18220D01*
G01X113785Y18035D01*
G01X113691Y17849D01*
G01X113600Y17758D01*
G01X113323Y17667D01*
G01X112493Y17667D01*
G01X113138Y17667D02*
G01X113785Y16651D01*
G01X114949Y18589D02*
G01X114763Y18497D01*
G01X114580Y18312D01*
G01X114486Y18129D01*
G01X114395Y17849D01*
G01X114395Y17390D01*
G01X114486Y17113D01*
G01X114580Y16927D01*
G01X114763Y16742D01*
G01X114949Y16651D01*
G01X115317Y16651D01*
G01X115502Y16742D01*
G01X115688Y16927D01*
G01X115779Y17113D01*
G01X115873Y17390D01*
G01X115873Y17849D01*
G01X115779Y18129D01*
G01X115688Y18312D01*
G01X115502Y18497D01*
G01X115317Y18589D01*
G01X114949Y18589D01*
G01X116483Y18589D02*
G01X116483Y16651D01*
G01X116483Y18589D02*
G01X117776Y16651D01*
G01X117776Y18589D02*
G01X117776Y16651D01*
G01X119031Y18589D02*
G01X119031Y16651D01*
G01X118385Y18589D02*
G01X119678Y18589D01*
G01X114977Y33829D02*
G01X114238Y31891D01*
G01X114977Y33829D02*
G01X115716Y31891D01*
G01X114514Y32536D02*
G01X115439Y32536D01*
G54D25*
G01X25651Y7781D02*
G01X25547Y7728D01*
G01X25443Y7624D01*
G01X25392Y7522D01*
G01X25392Y7314D01*
G01X25443Y7210D01*
G01X25547Y7106D01*
G01X25651Y7052D01*
G01X25806Y7002D01*
G01X26065Y7002D01*
G01X26222Y7052D01*
G01X26327Y7106D01*
G01X26431Y7210D01*
G01X26481Y7314D01*
G01X26481Y7522D01*
G01X26431Y7624D01*
G01X26327Y7728D01*
G01X26222Y7781D01*
G01X25392Y8228D02*
G01X25392Y8800D01*
G01X25806Y8487D01*
G01X25806Y8642D01*
G01X25859Y8746D01*
G01X25910Y8800D01*
G01X26065Y8851D01*
G01X26169Y8851D01*
G01X26327Y8800D01*
G01X26431Y8696D01*
G01X26481Y8538D01*
G01X26481Y8383D01*
G01X26431Y8228D01*
G01X26377Y8175D01*
G01X26273Y8124D01*
G01X50797Y7657D02*
G01X50693Y7603D01*
G01X50589Y7499D01*
G01X50538Y7398D01*
G01X50538Y7189D01*
G01X50589Y7085D01*
G01X50693Y6981D01*
G01X50797Y6928D01*
G01X50952Y6877D01*
G01X51211Y6877D01*
G01X51369Y6928D01*
G01X51473Y6981D01*
G01X51577Y7085D01*
G01X51628Y7189D01*
G01X51628Y7398D01*
G01X51577Y7499D01*
G01X51473Y7603D01*
G01X51369Y7657D01*
G01X50538Y8518D02*
G01X51264Y8000D01*
G01X51264Y8780D01*
G01X50538Y8518D02*
G01X51628Y8518D01*
G01X90627Y7781D02*
G01X90523Y7728D01*
G01X90419Y7624D01*
G01X90368Y7522D01*
G01X90368Y7314D01*
G01X90419Y7210D01*
G01X90523Y7106D01*
G01X90627Y7052D01*
G01X90782Y7002D01*
G01X91041Y7002D01*
G01X91198Y7052D01*
G01X91303Y7106D01*
G01X91407Y7210D01*
G01X91458Y7314D01*
G01X91458Y7522D01*
G01X91407Y7624D01*
G01X91303Y7728D01*
G01X91198Y7781D01*
G01X90368Y8746D02*
G01X90368Y8228D01*
G01X90835Y8175D01*
G01X90782Y8228D01*
G01X90731Y8383D01*
G01X90731Y8538D01*
G01X90782Y8696D01*
G01X90886Y8800D01*
G01X91041Y8851D01*
G01X91145Y8851D01*
G01X91303Y8800D01*
G01X91407Y8696D01*
G01X91458Y8538D01*
G01X91458Y8383D01*
G01X91407Y8228D01*
G01X91353Y8175D01*
G01X91249Y8124D01*
G01X115773Y7761D02*
G01X115669Y7708D01*
G01X115565Y7603D01*
G01X115514Y7502D01*
G01X115514Y7294D01*
G01X115565Y7189D01*
G01X115669Y7085D01*
G01X115773Y7032D01*
G01X115928Y6981D01*
G01X116187Y6981D01*
G01X116345Y7032D01*
G01X116449Y7085D01*
G01X116553Y7189D01*
G01X116604Y7294D01*
G01X116604Y7502D01*
G01X116553Y7603D01*
G01X116449Y7708D01*
G01X116345Y7761D01*
G01X115669Y8726D02*
G01X115565Y8675D01*
G01X115514Y8518D01*
G01X115514Y8416D01*
G01X115565Y8259D01*
G01X115720Y8155D01*
G01X115981Y8104D01*
G01X116240Y8104D01*
G01X116449Y8155D01*
G01X116553Y8259D01*
G01X116604Y8416D01*
G01X116604Y8467D01*
G01X116553Y8622D01*
G01X116449Y8726D01*
G01X116291Y8779D01*
G01X116240Y8779D01*
G01X116085Y8726D01*
G01X115981Y8622D01*
G01X115928Y8467D01*
G01X115928Y8416D01*
G01X115981Y8259D01*
G01X116085Y8155D01*
G01X116240Y8104D01*
G01X22502Y42018D02*
G01X22502Y40926D01*
G01X22502Y42018D02*
G01X22969Y42018D01*
G01X23125Y41966D01*
G01X23177Y41914D01*
G01X23229Y41810D01*
G01X23229Y41706D01*
G01X23177Y41602D01*
G01X23125Y41550D01*
G01X22969Y41498D01*
G01X22502Y41498D01*
G01X22865Y41498D02*
G01X23229Y40926D01*
G01X23572Y41810D02*
G01X23676Y41862D01*
G01X23832Y42018D01*
G01X23832Y40926D01*
G01X47139Y42018D02*
G01X47139Y40926D01*
G01X47139Y42018D02*
G01X47607Y42018D01*
G01X47763Y41966D01*
G01X47815Y41914D01*
G01X47867Y41810D01*
G01X47867Y41706D01*
G01X47815Y41602D01*
G01X47763Y41550D01*
G01X47607Y41498D01*
G01X47139Y41498D01*
G01X47503Y41498D02*
G01X47867Y40926D01*
G01X48262Y41758D02*
G01X48262Y41810D01*
G01X48314Y41914D01*
G01X48366Y41966D01*
G01X48470Y42018D01*
G01X48677Y42018D01*
G01X48781Y41966D01*
G01X48833Y41914D01*
G01X48885Y41810D01*
G01X48885Y41706D01*
G01X48833Y41602D01*
G01X48729Y41446D01*
G01X48210Y40926D01*
G01X48937Y40926D01*
G01X87017Y42017D02*
G01X87017Y40926D01*
G01X87017Y42017D02*
G01X87485Y42017D01*
G01X87641Y41966D01*
G01X87693Y41914D01*
G01X87745Y41810D01*
G01X87745Y41706D01*
G01X87693Y41602D01*
G01X87641Y41550D01*
G01X87485Y41498D01*
G01X87017Y41498D01*
G01X87381Y41498D02*
G01X87745Y40926D01*
G01X88192Y42017D02*
G01X88763Y42017D01*
G01X88451Y41602D01*
G01X88607Y41602D01*
G01X88711Y41550D01*
G01X88763Y41498D01*
G01X88815Y41342D01*
G01X88815Y41238D01*
G01X88763Y41082D01*
G01X88659Y40978D01*
G01X88503Y40926D01*
G01X88348Y40926D01*
G01X88192Y40978D01*
G01X88140Y41030D01*
G01X88088Y41134D01*
G01X112164Y42133D02*
G01X112164Y41042D01*
G01X112164Y42133D02*
G01X112631Y42133D01*
G01X112787Y42081D01*
G01X112839Y42029D01*
G01X112891Y41925D01*
G01X112891Y41821D01*
G01X112839Y41717D01*
G01X112787Y41665D01*
G01X112631Y41613D01*
G01X112164Y41613D01*
G01X112527Y41613D02*
G01X112891Y41042D01*
G01X113753Y42133D02*
G01X113234Y41406D01*
G01X114013Y41406D01*
G01X113753Y42133D02*
G01X113753Y41042D01*
G54D10*
G75*
G01X34246Y24848D02*
G03X34246Y24848I-9246J0D01*
G01*
G75*
G01X30487Y24848D02*
G03X30487Y24848I-5486J0D01*
G01*
G75*
G01X59246Y24848D02*
G03X59246Y24848I-9246J0D01*
G01*
G75*
G01X55486Y24848D02*
G03X55486Y24848I-5486J0D01*
G01*
G75*
G01X99246Y24848D02*
G03X99246Y24848I-9246J0D01*
G01*
G75*
G01X95486Y24848D02*
G03X95486Y24848I-5486J0D01*
G01*
G75*
G01X124246Y24848D02*
G03X124246Y24848I-9246J0D01*
G01*
G75*
G01X120486Y24848D02*
G03X120486Y24848I-5486J0D01*
G01*
M00*
M02*
